<svg width="16" height="16" viewBox="0 0 16 16" fill="none" xmlns="http://www.w3.org/2000/svg">
<path d="M14.8731 0.250244L9.44591 3.4814H6.56689L1.12685 0.252378L0.00426837 4.64027L1.00734 7.82178L0 11.5572L1.10978 15.3176L4.57997 14.2847L7.04709 15.7487H8.94651L11.4094 14.2847L14.8817 15.3176L16 11.5721L14.9905 7.80954L16 4.6424L14.8731 0.250244Z" fill="#0A0A0A"/>
<path d="M14.993 7.812L14.4679 8.09707L15.3181 11.2728H11.2771L9.12567 12.9023L9.41083 13.2188L9.72333 13.1836L11.0821 12.143V13.5819L11.6622 13.752V11.848H15.3081L15.9982 11.5629L14.988 7.802L14.993 7.812Z" fill="#D075FF"/>
<path d="M12.2319 7.96228V9.11255L11.4917 8.41738H9.6163L9.52628 8.99752H11.2617L11.9268 9.62767L11.5117 9.7277V10.3228L12.802 10.0078L12.812 8.09231L12.2319 7.95728V7.96228Z" fill="#D075FF"/>
<path d="M11.0077 9.2417H9.71241L9.34733 10.1819L9.27231 10.672L9.61239 10.8021L11.5078 10.337H11.5178V9.73682L11.0127 9.2417H11.0077ZM9.72741 10.342L9.99247 9.6568H10.8377L11.1777 9.98688L9.72741 10.342Z" fill="#BAF24A"/>
<path d="M1.0059 7.812L1.53102 8.09707L0.675825 11.2728H4.72174L6.86723 12.8982L6.5788 13.2188L6.27216 13.1777L4.91679 12.143L4.91679 13.5801L4.33665 13.7501L4.33666 11.848H0.690828L0.000671387 11.5629L1.0109 7.802L1.0059 7.812Z" fill="#D075FF"/>
<path d="M3.77188 7.96228V9.11255L4.51205 8.41738H6.38747L6.47749 8.99752H4.7421L4.07695 9.62767L4.49204 9.7277V10.3228L3.19675 10.0078V8.09231L3.77188 7.95728V7.96228Z" fill="#D075FF"/>
<path d="M15.3107 11.8454L14.4981 14.5941L9.72701 13.1788L9.41083 13.2168L9.29364 13.6504L10.6572 14.059L8.7918 15.1692H7.20644L5.34101 14.059L6.70132 13.6539L6.58129 13.2188L6.27122 13.1788L1.50014 14.5941L0.684955 11.8456L0 11.5596L1.11005 15.3193L4.58084 14.289L7.05135 15.7544H8.94683L11.4124 14.289L14.8832 15.3193L15.9979 11.5637L15.3107 11.8454Z" fill="#89B0FF"/>
<path d="M14.879 0.245605L9.43774 3.48137H6.56709L1.12585 0.245605L0.0155985 4.59164L0.000595093 4.63665L0.0155985 4.68166L1.00582 7.8074L1.52594 8.09247H3.18132L3.76145 7.95744L6.06197 6.38206L7.04753 12.7012L7.22527 12.5039H7.59636L6.57209 5.87194L6.75213 4.05151H9.24769L9.42773 5.87194L8.40105 12.5039H8.76433L8.95573 12.7148L9.93785 6.38206L12.2384 7.95744L12.8185 8.09247H14.4739L14.994 7.8074L15.9992 4.63665L14.879 0.245605ZM3.38636 7.51733H1.51594L0.59573 4.62164L1.45593 1.26585L5.83192 5.83693L3.38136 7.51233L3.38636 7.51733ZM6.05197 5.23179L2.99127 2.03103L6.182 3.92648L6.05697 5.22679L6.05197 5.23179ZM9.81282 3.93148L13.0035 2.03603L9.94285 5.23679L9.81782 3.93648L9.81282 3.93148ZM14.4739 7.52233H12.6085L10.1579 5.84694L14.5439 1.27085L15.4041 4.62665L14.4839 7.52233H14.4739Z" fill="#FF5C16"/>
<path d="M8.77185 12.5034H7.2265L6.57635 13.2186L6.90143 14.4039H9.08692L9.412 13.2186L8.76185 12.5034H8.77185ZM8.65183 13.8237H7.34653L7.2215 13.3736L7.47656 13.0886H8.5168L8.77185 13.3736L8.64683 13.8237H8.65183Z" fill="#BAF24A"/>
<path d="M4.49193 9.73218V10.3273H4.50193L6.39736 10.7974L6.73744 10.6674L6.66242 10.1773L6.29734 9.23706H5.00204L4.49693 9.73218H4.49193ZM4.827 9.98224L5.16708 9.65216H6.01227L6.27733 10.3373L4.827 9.98224Z" fill="#BAF24A"/>
</svg>
